<?xml version="1.0" encoding="utf-8"?>
<!-- Generator: Adobe Illustrator 21.1.0, SVG Export Plug-In . SVG Version: 6.00 Build 0)  -->
<svg version="1.1" id="Layer_1" xmlns="http://www.w3.org/2000/svg" xmlns:xlink="http://www.w3.org/1999/xlink" x="0px" y="0px"
	 viewBox="0 0 288 288" style="enable-background:new 0 0 288 288;" xml:space="preserve">
<style type="text/css">
	.st0{fill:#231F20;}
</style>
<g>
	<path fill="#D64F3E" d="M48.2,143.9c0.9,0.8,2.5,1.5,3.7,1.5h209.3c5.8,0,8.5-5.6,4.2-8.6l-93.2-65.1c-1-0.7-1.8-0.3-1.8,0.9v19.5
		c0,1.2,0.8,2.7,1.8,3.4l45.4,32.6c1,0.7,0.8,1.3-0.4,1.3l-182.5,0c-1.2,0-1.5,0.7-0.6,1.5L48.2,143.9z"/>
</g>
<g>
	<path fill="#D64F3E" d="M225.8,156.3c-0.9-0.8-2.5-1.5-3.7-1.5H17c-5.1,0-7.6,5.1-3.7,7.9l91.7,65.8c1,0.7,1.8,0.3,1.8-0.9v-19.5
		c0-1.2-0.8-2.7-1.7-3.4l-44.1-32.5c-1-0.7-0.8-1.3,0.4-1.3l177.5,0c1.2,0,1.5-0.7,0.6-1.5L225.8,156.3z"/>
</g>
<g>
	<path fill="#D64F3E" d="M124.5,242.3c-0.5,0-0.7-0.4-0.7-0.7v-57c0-0.4,0.3-0.7,0.7-0.7h15c6.2,0,8.4,3,8.4,8.1v16.3c0,5.2-1.8,8.6-8.3,8.6h-6.9
		v24.8c0,0.5-0.3,0.7-0.7,0.7H124.5z M132.7,192.4v16.1h6c0.3,0,0.4-0.1,0.4-0.4v-15.3c0-0.3-0.1-0.4-0.4-0.4H132.7z"/>
	<path fill="#D64F3E" d="M153,241.6v-57c0-0.4,0.3-0.7,0.7-0.7h16.3c6.2,0,8.4,3,8.4,8.1v42.1c0,5.2-1.8,8.2-8.3,8.2h-16.3
		C153.1,242.3,153,241.9,153,241.6z M161.8,192.4v41.5h7.3c0.3,0,0.4-0.1,0.4-0.4v-40.7c0-0.3-0.1-0.4-0.4-0.4H161.8z"/>
	<path fill="#D64F3E" d="M189.4,183.9c0.4,0,0.6,0.2,0.7,0.7L194,200l3.8-15.3c0.1-0.5,0.3-0.7,0.7-0.7h7.5c0.5,0,0.7,0.4,0.7,0.7l-7.6,28.5
		l7.6,28.5c0,0.2-0.2,0.7-0.7,0.7h-7.5c-0.4,0-0.6-0.2-0.7-0.7l-3.8-15.3l-3.9,15.3c-0.1,0.5-0.3,0.7-0.7,0.7h-7.5
		c-0.5,0-0.7-0.4-0.7-0.7l7.7-28.5l-7.7-28.5c0-0.3,0.2-0.7,0.7-0.7H189.4z"/>
</g>
<g>
	<path fill="#D64F3E" d="M37.1,63.6v49.3c0,0.5-0.3,0.7-0.6,0.7h-7.6c-0.4,0-0.7-0.4-0.7-0.7V63.6h-6.3c-0.5,0-0.7-0.3-0.7-0.6v-7.1
		c0-0.4,0.3-0.7,0.7-0.7h21.6c0.3,0,0.7,0.3,0.7,0.7V63c0,0.4-0.3,0.6-0.7,0.6H37.1z"/>
	<path fill="#D64F3E" d="M63.8,113.6c-0.5,0-0.7-0.4-0.7-0.7l-6.4-23v23c0,0.5-0.3,0.7-0.7,0.7h-7.5c-0.5,0-0.7-0.4-0.7-0.7v-57
		c0-0.4,0.3-0.7,0.7-0.7h15c6.2,0,8.4,3,8.4,8.1v17.1c0,4.7-1.5,7.6-6.5,8.1l7.3,24.4c0.1,0.5-0.3,0.7-0.7,0.7H63.8z M56.8,63.6
		v16.5h6c0.3,0,0.4-0.1,0.4-0.4V64.1c0-0.3-0.1-0.4-0.4-0.4H56.8z"/>
	<path fill="#D64F3E" d="M93.4,55.2c0.5,0,0.7,0.4,0.7,0.7l9.4,57c0,0.4-0.2,0.7-0.7,0.7h-7.8c-0.3,0-0.7-0.3-0.7-0.7L92.4,99h-6.9l-2.1,13.9
		c0,0.4-0.3,0.7-0.7,0.7h-7.8c-0.4,0-0.7-0.3-0.7-0.7l9.9-57c0-0.3,0.2-0.7,0.7-0.7H93.4z M86.7,90.6h4.6l-2.2-16.1L86.7,90.6z"/>
	<path fill="#D64F3E" d="M107.2,112.9v-57c0-0.4,0.3-0.7,0.7-0.7h16.3c6.2,0,8.4,3,8.4,8.1v42.1c0,5.2-1.8,8.2-8.3,8.2h-16.3
		C107.4,113.6,107.2,113.1,107.2,112.9z M116.1,63.6v41.5h7.3c0.3,0,0.4-0.1,0.4-0.4V64.1c0-0.3-0.1-0.4-0.4-0.4H116.1z"/>
	<path fill="#D64F3E" d="M139.9,113.6c-0.5,0-0.7-0.4-0.7-0.7v-57c0-0.4,0.3-0.7,0.7-0.7h15.5c0.3,0,0.7,0.3,0.7,0.7V63c0,0.4-0.3,0.6-0.7,0.6h-7.3
		v16.2h7.3c0.3,0,0.7,0.2,0.7,0.7v7.1c0,0.5-0.3,0.7-0.7,0.7h-7.3v17h7.3c0.3,0,0.7,0.3,0.7,0.6v7.2c0,0.5-0.3,0.7-0.7,0.7H139.9z"
		/>
</g>
<g>
	<path class="st0" d="M-198.2,238.3c-1.3,0-2.5-0.5-3.4-1.4l-1.2-1.2c-0.5-0.5-0.7-1.2-0.4-1.9s0.9-1.1,1.6-1.1h88.5
		c0.5,0,0.7-0.3,0.7-0.6c0-0.3-0.1-0.7-0.5-0.8l-11.1-3.1c-1-0.3-0.9-0.8-0.9-1.1l1-3.7c0.1-0.3,0.4-0.5,0.9-0.5
		c0.1,0,0.3,0,0.4,0.1l33.8,9.6c0.8,0.2,1.5,0.8,1.9,1.5s0.5,1.6,0.3,2.4l-0.1,0.4c-0.2,0.8-1,1.4-1.8,1.4c0,0-0.1,0-0.2,0
		c-0.2,0-0.3,0-0.5,0H-198.2z"/>
	<path class="st0" d="M-122.9,223.5c0.1,0,0.2,0,0.3,0l33.8,9.6c1.4,0.4,2.2,1.8,1.8,3.2l-0.1,0.4c-0.2,0.6-0.7,1-1.3,1
		c-0.1,0-0.1,0-0.2,0c-0.2,0-0.3,0.1-0.5,0.1h-109c-1.1,0-2.2-0.4-3-1.2l-1.2-1.2c-0.8-0.8-0.2-2.1,0.8-2.1h88.5
		c1.4,0,1.7-2,0.3-2.4l-11.1-3.1c-0.5-0.1-0.6-0.3-0.5-0.5l1-3.7C-123.3,223.6-123.1,223.5-122.9,223.5 M-122.9,222.5
		c-0.8,0-1.3,0.5-1.4,0.9l-1,3.7c-0.1,0.4,0,0.9,0.4,1.2c0.2,0.2,0.5,0.3,0.9,0.5l11.1,3.1c0.1,0,0.2,0,0.1,0.2
		c0,0.2-0.1,0.2-0.2,0.2h-88.5c-0.9,0-1.7,0.5-2,1.4c-0.3,0.8-0.1,1.8,0.5,2.4l1.2,1.2c1,1,2.3,1.5,3.7,1.5h109c0.2,0,0.4,0,0.5,0
		c0.1,0,0.1,0,0.2,0c1.1,0,2-0.7,2.3-1.7l0.1-0.4c0.3-0.9,0.1-1.9-0.3-2.7c-0.5-0.8-1.2-1.4-2.2-1.7l-33.8-9.6
		C-122.5,222.5-122.7,222.5-122.9,222.5L-122.9,222.5z"/>
</g>
<g>
	<path class="st0" d="M-193,201.6v24.9c0,0.3-0.1,0.3-0.3,0.3h-3.8c-0.2,0-0.3-0.2-0.3-0.3v-24.9h-3.2c-0.3,0-0.3-0.2-0.3-0.3v-3.6
		c0-0.2,0.1-0.3,0.3-0.3h10.9c0.2,0,0.3,0.1,0.3,0.3v3.6c0,0.2-0.2,0.3-0.3,0.3H-193z"/>
	<path class="st0" d="M-179.5,226.8c-0.3,0-0.3-0.2-0.3-0.3l-3.2-11.6v11.6c0,0.3-0.1,0.3-0.3,0.3h-3.8c-0.3,0-0.3-0.2-0.3-0.3
		v-28.7c0-0.2,0.1-0.3,0.3-0.3h7.6c3.1,0,4.2,1.5,4.2,4.1v8.6c0,2.4-0.8,3.8-3.3,4.1l3.7,12.3c0,0.3-0.1,0.3-0.3,0.3H-179.5z
		 M-183,201.7v8.3h3c0.2,0,0.2,0,0.2-0.2v-7.9c0-0.2,0-0.2-0.2-0.2H-183z"/>
	<path class="st0" d="M-164.6,197.4c0.3,0,0.3,0.2,0.3,0.3l4.7,28.7c0,0.2-0.1,0.3-0.3,0.3h-4c-0.2,0-0.3-0.1-0.3-0.3l-1-7h-3.5
		l-1.1,7c0,0.2-0.1,0.3-0.3,0.3h-4c-0.2,0-0.3-0.1-0.3-0.3l5-28.7c0-0.1,0.1-0.3,0.3-0.3H-164.6z M-167.9,215.3h2.3l-1.1-8.1
		L-167.9,215.3z"/>
	<path class="st0" d="M-157.6,226.5v-28.7c0-0.2,0.1-0.3,0.3-0.3h8.2c3.1,0,4.2,1.5,4.2,4.1v21.2c0,2.6-0.9,4.1-4.2,4.1h-8.2
		C-157.5,226.8-157.6,226.6-157.6,226.5z M-153.1,201.7v20.9h3.7c0.2,0,0.2,0,0.2-0.2v-20.5c0-0.2,0-0.2-0.2-0.2H-153.1z"/>
	<path class="st0" d="M-141.1,226.8c-0.3,0-0.3-0.2-0.3-0.3v-28.7c0-0.2,0.1-0.3,0.3-0.3h7.8c0.2,0,0.3,0.1,0.3,0.3v3.6
		c0,0.2-0.2,0.3-0.3,0.3h-3.7v8.2h3.7c0.2,0,0.3,0.1,0.3,0.3v3.6c0,0.3-0.2,0.3-0.3,0.3h-3.7v8.6h3.7c0.2,0,0.3,0.1,0.3,0.3v3.6
		c0,0.3-0.2,0.3-0.3,0.3H-141.1z"/>
</g>
<g>
	<path class="st0" d="M-166.5,258c-0.1,0-0.3,0-0.4-0.1l-33.8-9.6c-0.8-0.2-1.5-0.8-1.9-1.5c-0.4-0.7-0.5-1.6-0.3-2.4l0.1-0.4
		c0.2-0.8,1-1.4,1.8-1.4c0.1,0,0.1,0,0.2,0c0.2,0,0.3,0,0.5,0h109c1.3,0,2.5,0.5,3.4,1.4l1.2,1.2c0.5,0.5,0.7,1.2,0.4,1.9
		s-0.9,1.1-1.6,1.1h-88.5c-0.5,0-0.7,0.3-0.7,0.6c0,0.3,0.1,0.7,0.5,0.8l11.1,3.1c0.3,0.1,0.5,0.2,0.7,0.3c0.2,0.2,0.3,0.5,0.2,0.7
		l-1,3.7C-165.7,257.8-166,258-166.5,258z"/>
	<path class="st0" d="M-91.2,243.2c1.1,0,2.2,0.4,3,1.2l1.2,1.2c0.8,0.8,0.2,2.1-0.8,2.1h-88.5c-1.4,0-1.7,2-0.3,2.4l11.1,3.1
		c0.5,0.1,0.6,0.3,0.5,0.5l-1,3.7c0,0.1-0.2,0.2-0.4,0.2c-0.1,0-0.2,0-0.3,0l-33.8-9.6c-1.4-0.4-2.2-1.8-1.8-3.2l0.1-0.4
		c0.2-0.6,0.7-1,1.3-1c0.1,0,0.1,0,0.2,0c0.2,0,0.3-0.1,0.5-0.1H-91.2 M-91.2,242.2h-109c-0.2,0-0.4,0-0.5,0c-0.1,0-0.1,0-0.2,0
		c-1.1,0-2,0.7-2.3,1.7l-0.1,0.4c-0.3,0.9-0.1,1.9,0.3,2.7c0.5,0.8,1.2,1.4,2.2,1.7l33.8,9.6c0.2,0,0.4,0.1,0.6,0.1
		c0.8,0,1.3-0.5,1.4-0.9l1-3.7c0.1-0.4,0-0.9-0.4-1.2c-0.2-0.2-0.5-0.3-0.9-0.5l-11.1-3.1c-0.1,0-0.2,0-0.1-0.2
		c0-0.2,0.1-0.2,0.2-0.2h88.5c0.9,0,1.7-0.5,2-1.4c0.3-0.8,0.1-1.8-0.5-2.4l-1.2-1.2C-88.5,242.7-89.8,242.2-91.2,242.2L-91.2,242.2
		z"/>
</g>
<g>
	<path class="st0" d="M-156.8,282.7c-0.3,0-0.3-0.2-0.3-0.3v-28.7c0-0.2,0.1-0.3,0.3-0.3h7.6c3.1,0,4.2,1.5,4.2,4.1v8.2
		c0,2.6-0.9,4.3-4.2,4.3h-3.5v12.5c0,0.3-0.1,0.3-0.3,0.3H-156.8z M-152.7,257.6v8.1h3c0.2,0,0.2,0,0.2-0.2v-7.7
		c0-0.2,0-0.2-0.2-0.2H-152.7z"/>
	<path class="st0" d="M-142.5,282.4v-28.7c0-0.2,0.1-0.3,0.3-0.3h8.2c3.1,0,4.2,1.5,4.2,4.1v21.2c0,2.6-0.9,4.1-4.2,4.1h-8.2
		C-142.4,282.7-142.5,282.5-142.5,282.4z M-138,257.6v20.9h3.7c0.2,0,0.2,0,0.2-0.2v-20.5c0-0.2,0-0.2-0.2-0.2H-138z"/>
	<path class="st0" d="M-124.1,253.3c0.2,0,0.3,0.1,0.3,0.3l2,7.7l1.9-7.7c0-0.3,0.1-0.3,0.3-0.3h3.8c0.3,0,0.3,0.2,0.3,0.3
		l-3.8,14.4l3.8,14.4c0,0.1-0.1,0.3-0.3,0.3h-3.8c-0.2,0-0.3-0.1-0.3-0.3l-1.9-7.7l-2,7.7c0,0.3-0.1,0.3-0.3,0.3h-3.8
		c-0.3,0-0.3-0.2-0.3-0.3l3.9-14.4l-3.9-14.4c0-0.1,0.1-0.3,0.3-0.3H-124.1z"/>
</g>
</svg>
