<?xml version="1.0" encoding="utf-8"?>
<!-- Generator: Adobe Illustrator 21.1.0, SVG Export Plug-In . SVG Version: 6.00 Build 0)  -->
<svg version="1.1" id="Layer_1" xmlns="http://www.w3.org/2000/svg" xmlns:xlink="http://www.w3.org/1999/xlink" x="0px" y="0px"
	 viewBox="0 0 288 288" style="enable-background:new 0 0 288 288;" xml:space="preserve">
<style type="text/css">
	.st0{fill:#230505;}
</style>
<g>
	<path class="st0" d="M48.2,143.9c0.9,0.8,2.5,1.5,3.7,1.5h209.3c5.8,0,8.5-5.6,4.2-8.6l-93.2-65.1c-1-0.7-1.8-0.3-1.8,0.9v19.5
		c0,1.2,0.8,2.7,1.8,3.4l45.4,32.6c1,0.7,0.8,1.3-0.4,1.3H34.7c-1.2,0-1.5,0.7-0.6,1.5L48.2,143.9z"/>
</g>
<g>
	<path class="st0" d="M225.8,156.3c-0.9-0.8-2.5-1.5-3.7-1.5H17c-5.1,0-7.6,5.1-3.7,7.9l91.7,65.8c1,0.7,1.8,0.3,1.8-0.9v-19.5
		c0-1.2-0.8-2.7-1.7-3.4L61,172.2c-1-0.7-0.8-1.3,0.4-1.3h177.5c1.2,0,1.5-0.7,0.6-1.5L225.8,156.3z"/>
</g>
</svg>